<?xml version="1.0" standalone="no"?>
<!DOCTYPE svg PUBLIC "-//W3C//DTD SVG 20010904//EN"
 "http://www.w3.org/TR/2001/REC-SVG-20010904/DTD/svg10.dtd">
<svg version="1.0" xmlns="http://www.w3.org/2000/svg"
 width="1280.000000pt" height="624.000000pt" viewBox="0 0 1280.000000 624.000000"
 preserveAspectRatio="xMidYMid meet">

<g transform="translate(0.000000,624.000000) scale(0.100000,-0.100000)"
fill="#000000" stroke="none">
<path d="M4889 5575 c-238 -39 -463 -117 -774 -270 -571 -281 -1156 -717
-1729 -1291 -827 -827 -1395 -1718 -1548 -2428 -29 -135 -32 -388 -5 -486 53
-197 172 -324 360 -387 75 -25 95 -27 247 -27 181 -1 286 15 485 76 205 62
510 200 755 341 155 89 429 271 586 388 77 57 142 106 147 107 4 2 7 -35 7
-82 l0 -86 140 0 140 0 0 203 0 202 166 150 c906 819 1614 1838 1809 2606 96
377 53 674 -121 843 -52 51 -139 100 -221 127 -88 28 -316 35 -444 14z m384
-345 c92 -46 121 -115 120 -285 -2 -220 -83 -485 -249 -818 -276 -552 -699
-1112 -1253 -1661 l-181 -180 0 477 0 477 -138 0 -139 0 -6 -212 c-4 -116 -7
-388 -7 -604 l0 -393 -122 -99 c-578 -465 -1145 -780 -1608 -893 -127 -30
-340 -34 -412 -6 -96 37 -138 123 -138 283 0 208 80 477 238 798 275 561 688
1114 1252 1676 717 716 1495 1235 2120 1415 157 45 220 54 360 51 99 -2 122
-5 163 -26z"/>
<path d="M6497 3235 c-149 -30 -308 -141 -364 -255 -66 -135 -70 -317 -10
-435 11 -22 52 -72 91 -110 78 -78 152 -121 341 -198 191 -78 287 -144 326
-223 18 -38 21 -58 17 -113 -9 -117 -72 -185 -205 -222 -38 -10 -95 -18 -128
-19 -106 0 -265 51 -385 123 -35 21 -66 35 -67 30 -2 -4 -30 -53 -63 -108
l-59 -100 22 -19 c37 -31 174 -96 267 -126 234 -76 508 -63 665 32 85 52 122
87 168 156 55 83 76 145 84 243 13 163 -37 301 -145 399 -71 66 -143 106 -322
180 -275 114 -353 182 -351 307 2 222 277 283 619 136 46 -19 85 -34 87 -32 8
9 106 211 103 213 -24 18 -122 65 -193 92 -151 59 -349 78 -498 49z"/>
<path d="M10051 2513 c-110 -28 -239 -120 -306 -217 l-40 -58 -6 54 c-4 29
-10 83 -14 121 l-7 67 -124 0 -124 0 0 -525 0 -525 139 0 140 0 3 273 3 272
32 66 c59 121 166 197 290 207 61 5 63 6 68 36 3 17 5 79 3 137 l-3 106 -54
-14z"/>
<path d="M11025 2519 c-79 -12 -117 -25 -195 -65 -220 -115 -333 -332 -300
-575 27 -199 120 -333 285 -415 174 -86 391 -83 584 7 l83 39 -16 25 c-9 13
-37 58 -62 100 -25 41 -48 75 -51 75 -3 0 -35 -15 -72 -32 -61 -31 -73 -33
-166 -33 -86 0 -107 3 -147 24 -44 22 -127 96 -117 104 2 2 171 59 374 127
464 155 437 143 429 178 -40 168 -149 324 -269 385 -105 53 -243 74 -360 56z
m189 -234 c39 -16 75 -50 114 -108 21 -31 23 -40 12 -47 -13 -8 -85 -34 -415
-152 -60 -21 -115 -36 -123 -33 -20 7 -5 118 25 185 39 90 113 152 203 171 46
10 141 2 184 -16z"/>
<path d="M4938 2501 c-107 -35 -204 -109 -246 -186 l-16 -30 -12 95 c-7 52
-13 96 -13 98 -1 1 -55 2 -121 2 l-120 0 -2 -525 -3 -525 138 0 137 0 0 260
c0 155 5 280 11 312 17 77 51 150 95 197 108 120 291 120 352 1 22 -43 22 -51
22 -407 l0 -363 140 0 141 0 -3 428 c-3 412 -4 429 -24 473 -31 66 -84 121
-151 154 -52 27 -69 30 -163 32 -81 2 -118 -1 -162 -16z"/>
<path d="M7780 2066 c0 -463 1 -473 69 -562 133 -177 459 -157 621 37 l55 67
9 -89 8 -89 124 0 124 0 0 525 0 525 -134 0 -134 0 -5 -282 c-5 -295 -10 -337
-57 -428 -22 -43 -84 -106 -125 -127 -16 -9 -57 -18 -90 -21 -82 -6 -134 19
-164 81 -20 42 -21 58 -21 410 l0 367 -140 0 -140 0 0 -414z"/>
</g>
</svg>
